<?xml version="1.0" encoding="UTF-8"?>
<level>
  <owner>stolbitsa</owner>
  <repo>crazy-frog</repo>
  <version>v1.0.1</version>
  <next number="1" owner="stolbitsa" repo="tonic"/>
  <readme>
    <ru>f80fce8444d0f4aa51c175d3be8d57f59105f334775fee36d497492dacfcb25b</ru>
    <en>49cba95d2557e299e8bdbf4c3d37304b1d38f3c8d5de190152cc51f4456a6210</en>
  </readme>
  <license>b1b99f5538d1fd3702219bff50c665196dfa42f6ee755c37fe41a6178d6bc6e5</license>
  <exercise number="1">
    <scale>minor</scale>
    <bpm>140</bpm>
    <lowestNote>5</lowestNote>
    <tonalities>3</tonalities>
    <video name="6-crazy-frog.mp4" size="1236288" type="video/mp4" volume="0.403">95989b0c2a00eb0198879b1d2a25852eced9a6340a9f8a8c386f5e0024378506</video>
    <notes>
      <note number="1" values="18" ticks="22" durationTicks="73" ppq="96" velocity="0.843"/>
      <note number="2" values="38" ticks="118" durationTicks="70" ppq="96" velocity="0.913"/>
      <note number="3" values="18" ticks="191" durationTicks="34" ppq="96" velocity="0.789"/>
      <note number="4" values="18" ticks="239" durationTicks="20" ppq="96" velocity="0.772"/>
      <note number="5" values="48" ticks="264" durationTicks="40" ppq="96" velocity="0.749"/>
      <note number="6" values="18" ticks="313" durationTicks="41" ppq="96" velocity="0.859"/>
      <note number="7" values="7" ticks="359" durationTicks="37" ppq="96" velocity="0.749"/>
    </notes>
  </exercise>
  <exercise number="2">
    <scale>major</scale>
    <bpm>80</bpm>
    <lowestNote>1</lowestNote>
    <tonalities>1</tonalities>
    <notes>
      <note number="1" values="1" ticks="0" durationTicks="95" ppq="96" velocity="0.843"/>
      <note number="2" values="1" ticks="96" durationTicks="95" ppq="96" velocity="0.913"/>
      <note number="3" values="1" ticks="192" durationTicks="95" ppq="96" velocity="0.913"/>
      <note number="4" values="1" ticks="288" durationTicks="95" ppq="96" velocity="0.913"/>
      <note number="5" values="1" ticks="384" durationTicks="95" ppq="96" velocity="0.913"/>
      <note number="6" values="1" ticks="480" durationTicks="95" ppq="96" velocity="0.913"/>
      <note number="7" values="1" ticks="576" durationTicks="95" ppq="96" velocity="0.913"/>
      <note number="8" values="1" ticks="672" durationTicks="95" ppq="96" velocity="0.913"/>
      <note number="9" values="1" ticks="768" durationTicks="95" ppq="96" velocity="0.913"/>
      <note number="10" values="1" ticks="864" durationTicks="95" ppq="96" velocity="0.913"/>
      <note number="11" values="1" ticks="960" durationTicks="95" ppq="96" velocity="0.913"/>
      <note number="12" values="1" ticks="1056" durationTicks="95" ppq="96" velocity="0.913"/>
    </notes>
  </exercise>
  <exercise number="3">
    <scale>major</scale>
    <bpm>80</bpm>
    <lowestNote>1</lowestNote>
    <tonalities>1</tonalities>
    <notes>
      <note number="1" values="1" ticks="0" durationTicks="95" ppq="96" velocity="0.843"/>
      <note number="2" values="1" ticks="96" durationTicks="95" ppq="96" velocity="0.913"/>
      <note number="3" values="1" ticks="192" durationTicks="95" ppq="96" velocity="0.913"/>
      <note number="4" values="1" ticks="288" durationTicks="95" ppq="96" velocity="0.913"/>
      <note number="5" values="1" ticks="384" durationTicks="95" ppq="96" velocity="0.913"/>
      <note number="6" values="1" ticks="480" durationTicks="95" ppq="96" velocity="0.913"/>
      <note number="7" values="1" ticks="576" durationTicks="95" ppq="96" velocity="0.913"/>
      <note number="8" values="1" ticks="672" durationTicks="95" ppq="96" velocity="0.913"/>
      <note number="9" values="1" ticks="768" durationTicks="95" ppq="96" velocity="0.913"/>
      <note number="10" values="1" ticks="864" durationTicks="95" ppq="96" velocity="0.913"/>
      <note number="11" values="1" ticks="960" durationTicks="95" ppq="96" velocity="0.913"/>
      <note number="12" values="1" ticks="1056" durationTicks="95" ppq="96" velocity="0.913"/>
    </notes>
  </exercise>
  <exercise number="4">
    <scale>major</scale>
    <bpm>80</bpm>
    <lowestNote>1</lowestNote>
    <tonalities>1</tonalities>
    <notes>
      <note number="1" values="1" ticks="0" durationTicks="95" ppq="96" velocity="0.843"/>
      <note number="2" values="1" ticks="96" durationTicks="95" ppq="96" velocity="0.913"/>
      <note number="3" values="1" ticks="192" durationTicks="95" ppq="96" velocity="0.913"/>
      <note number="4" values="1" ticks="288" durationTicks="95" ppq="96" velocity="0.913"/>
      <note number="5" values="1" ticks="384" durationTicks="95" ppq="96" velocity="0.913"/>
      <note number="6" values="1" ticks="480" durationTicks="95" ppq="96" velocity="0.913"/>
      <note number="7" values="1" ticks="576" durationTicks="95" ppq="96" velocity="0.913"/>
      <note number="8" values="1" ticks="672" durationTicks="95" ppq="96" velocity="0.913"/>
      <note number="9" values="1" ticks="768" durationTicks="95" ppq="96" velocity="0.913"/>
      <note number="10" values="1" ticks="864" durationTicks="95" ppq="96" velocity="0.913"/>
      <note number="11" values="1" ticks="960" durationTicks="95" ppq="96" velocity="0.913"/>
      <note number="12" values="1" ticks="1056" durationTicks="95" ppq="96" velocity="0.913"/>
    </notes>
  </exercise>
</level>
